<svg width="337" height="220" viewBox="0 0 337 220" fill="none" xmlns="http://www.w3.org/2000/svg">
<path d="M83.28 0.351983C103.872 0.351983 120.2 3.99199 132.264 11.272C144.536 18.552 153.272 30.408 158.472 46.84C163.88 63.064 166.584 84.904 166.584 112.36C166.584 139.816 163.88 161.76 158.472 178.192C153.272 194.416 144.536 206.168 132.264 213.448C120.2 220.52 103.872 224.056 83.28 224.056C62.688 224.056 46.256 220.52 33.984 213.448C21.92 206.168 13.288 194.416 8.088 178.192C2.888 161.76 0.288001 139.816 0.288001 112.36C0.288001 84.904 2.888 63.064 8.088 46.84C13.288 30.408 21.92 18.552 33.984 11.272C46.256 3.99199 62.688 0.351983 83.28 0.351983ZM82.968 37.48C73.816 37.48 66.64 39.664 61.44 44.032C56.24 48.192 52.6 55.68 50.52 66.496C48.44 77.104 47.4 92.392 47.4 112.36C47.4 132.328 48.44 147.72 50.52 158.536C52.6 169.144 56.24 176.528 61.44 180.688C66.64 184.848 73.816 186.928 82.968 186.928C92.328 186.928 99.608 184.848 104.808 180.688C110.216 176.528 113.96 169.144 116.04 158.536C118.328 147.72 119.472 132.328 119.472 112.36C119.472 92.392 118.328 77.104 116.04 66.496C113.96 55.68 110.216 48.192 104.808 44.032C99.608 39.664 92.328 37.48 82.968 37.48ZM336.275 108.928V142.936H282.299V195.352H248.291V142.936H194.315V108.928H248.291V56.824H282.299V108.928H336.275Z" fill="white"/>
</svg>
