<svg width="324" height="220" viewBox="0 0 324 220" fill="none" xmlns="http://www.w3.org/2000/svg">
<path d="M91.392 0.975993C96.384 0.975993 103.56 1.28799 112.92 1.91198C122.28 2.32799 132.16 3.88799 142.56 6.592L140.064 36.856C134.656 36.648 129.664 36.544 125.088 36.544C120.512 36.336 115.624 36.232 110.424 36.232C105.224 36.232 98.776 36.232 91.08 36.232C80.472 36.232 72.048 37.688 65.808 40.6C59.568 43.304 54.992 48.816 52.08 57.136C49.376 65.456 47.712 77.936 47.088 94.576C53.536 88.544 60.504 84.384 67.992 82.096C75.48 79.808 84.528 78.664 95.136 78.664C110.944 78.664 123.32 80.952 132.264 85.528C141.208 90.104 147.448 97.384 150.984 107.368C154.728 117.352 156.6 130.456 156.6 146.68C156.6 163.736 154.624 177.984 150.672 189.424C146.928 200.656 139.544 209.184 128.52 215.008C117.704 220.832 101.688 223.744 80.472 223.744C64.664 223.744 51.56 222.08 41.16 218.752C30.968 215.424 22.856 209.808 16.824 201.904C11 193.792 6.84 182.768 4.344 168.832C2.056 154.896 0.912001 137.216 0.912001 115.792C0.912001 91.04 2.68 71.072 6.216 55.888C9.96 40.704 15.576 29.16 23.064 21.256C30.552 13.352 39.912 8.048 51.144 5.34399C62.584 2.43199 76 0.975993 91.392 0.975993ZM81.408 112.048C74.96 111.84 69.136 112.672 63.936 114.544C58.944 116.208 53.224 119.224 46.776 123.592C46.776 141.272 47.4 154.792 48.648 164.152C50.104 173.512 53.224 179.96 58.008 183.496C63 186.824 70.696 188.488 81.096 188.488C90.456 188.488 97.32 187.032 101.688 184.12C106.056 181.208 108.864 176.736 110.112 170.704C111.36 164.672 111.984 156.976 111.984 147.616C111.984 138.464 111.152 131.288 109.488 126.088C107.824 120.888 104.704 117.248 100.128 115.168C95.76 112.88 89.52 111.84 81.408 112.048ZM323.783 108.928V142.936H269.807V195.352H235.799V142.936H181.823V108.928H235.799V56.824H269.807V108.928H323.783Z" fill="white"/>
</svg>
