<svg width="456" height="220" viewBox="0 0 456 220" fill="none" xmlns="http://www.w3.org/2000/svg">
<path d="M91.08 4.71998V220H43.656V67.12C43.656 63.376 43.76 59.632 43.968 55.888C44.176 51.936 44.8 47.984 45.84 44.032L-5.328 57.136L-11.256 26.248L43.656 4.71998H91.08ZM208.28 0.975993C223.048 0.975993 235.84 2.32799 246.656 5.032C257.68 7.52799 266.208 12.416 272.24 19.696C278.272 26.976 281.288 37.376 281.288 50.896C281.288 59.216 280.248 66.912 278.168 73.984C276.296 80.848 272.76 88.024 267.56 95.512C262.568 103 255.288 111.84 245.72 122.032L189.248 180.376C194.448 179.544 199.648 179.024 204.848 178.816C210.256 178.4 215.664 178.192 221.072 178.192H287.528V220H133.4V194.416C133.4 190.672 133.92 187.24 134.96 184.12C136 181 137.768 177.984 140.264 175.072L193.928 117.664C206.616 104.56 216.288 92.912 222.944 82.72C229.6 72.528 232.824 63.584 232.616 55.888C232.408 49.232 229.808 45.072 224.816 43.408C220.032 41.744 212.752 40.912 202.976 40.912C195.696 40.912 188.832 41.016 182.384 41.224C176.144 41.432 169.488 41.744 162.416 42.16C155.344 42.368 147.024 42.888 137.456 43.72L135.272 8.46399C150.664 5.34399 163.872 3.36799 174.896 2.53599C186.128 1.49599 197.256 0.975993 208.28 0.975993ZM455.713 108.928V142.936H401.737V195.352H367.729V142.936H313.753V108.928H367.729V56.824H401.737V108.928H455.713Z" fill="white"/>
</svg>
