<svg width="1440" height="1058" viewBox="0 0 1440 1058" fill="none" xmlns="http://www.w3.org/2000/svg">
<path fill-rule="evenodd" clip-rule="evenodd" d="M1440 0H0V980H1013.2C1020.38 1024.23 1058.74 1058 1105 1058C1151.26 1058 1189.62 1024.23 1196.8 980H1440V0ZM1196.8 980C1197.59 975.117 1198 970.107 1198 965C1198 913.638 1156.36 872 1105 872C1053.64 872 1012 913.638 1012 965C1012 970.107 1012.41 975.117 1013.2 980H1196.8Z" fill="url(#paint0_radial_0_1)"/>
<circle cx="1105" cy="965" r="93" fill="black"/>
<path d="M-135.904 320.683C-185.11 258.556 -174.636 168.303 -112.51 119.096C-50.3829 69.8898 39.8706 80.3637 89.0771 142.49C138.284 204.617 127.81 294.871 65.6831 344.077C3.55638 393.284 -86.6971 382.81 -135.904 320.683ZM68.5516 158.747C28.3235 107.957 -45.4619 99.3938 -96.2527 139.622C-147.043 179.85 -155.606 253.635 -115.378 304.426C-75.15 355.217 -1.36462 363.78 49.4262 323.552C100.217 283.324 108.78 209.538 68.5516 158.747Z" fill="#FFCBCB"/>
<path d="M-178.904 438.683C-228.11 376.556 -217.636 286.303 -155.51 237.096C-93.3829 187.89 -3.12941 198.364 46.0771 260.49C95.2837 322.617 84.8098 412.871 22.6831 462.077C-39.4436 511.284 -129.697 500.81 -178.904 438.683ZM25.5516 276.747C-14.6765 225.957 -88.4619 217.394 -139.253 257.622C-190.043 297.85 -198.606 371.635 -158.378 422.426C-118.15 473.217 -44.3646 481.78 6.42617 441.552C57.217 401.324 65.7797 327.538 25.5516 276.747Z" fill="#FF5252"/>
<path d="M1592 793.5C1592 872.753 1527.75 937 1448.5 937C1369.25 937 1305 872.753 1305 793.5C1305 714.247 1369.25 650 1448.5 650C1527.75 650 1592 714.247 1592 793.5ZM1367.67 793.5C1367.67 838.141 1403.86 874.329 1448.5 874.329C1493.14 874.329 1529.33 838.141 1529.33 793.5C1529.33 748.859 1493.14 712.671 1448.5 712.671C1403.86 712.671 1367.67 748.859 1367.67 793.5Z" fill="#E2E461"/>
<defs>
<radialGradient id="paint0_radial_0_1" cx="0" cy="0" r="1" gradientUnits="userSpaceOnUse" gradientTransform="translate(130 123.5) rotate(33.1773) scale(1565.15 2299.81)">
<stop stop-color="#FF0000"/>
<stop offset="0.461458" stop-color="#2400FF" stop-opacity="0.75"/>
<stop offset="0.805208" stop-opacity="0.630952"/>
<stop offset="1" stop-color="#00FF29" stop-opacity="0.5"/>
</radialGradient>
</defs>
</svg>
