<svg width="1440" height="1406" viewBox="0 0 1440 1406" fill="none" xmlns="http://www.w3.org/2000/svg">
<rect x="1440" y="1265" width="1440" height="1265" transform="rotate(180 1440 1265)" fill="url(#paint0_radial_0_1)"/>
<rect x="1440" y="1265" width="1440" height="1265" transform="rotate(180 1440 1265)" fill="black" fill-opacity="0.1"/>
<path d="M1432 1262.5C1432 1341.75 1367.75 1406 1288.5 1406C1209.25 1406 1145 1341.75 1145 1262.5C1145 1183.25 1209.25 1119 1288.5 1119C1367.75 1119 1432 1183.25 1432 1262.5ZM1207.67 1262.5C1207.67 1307.14 1243.86 1343.33 1288.5 1343.33C1333.14 1343.33 1369.33 1307.14 1369.33 1262.5C1369.33 1217.86 1333.14 1181.67 1288.5 1181.67C1243.86 1181.67 1207.67 1217.86 1207.67 1262.5Z" fill="#E2E461"/>
<path d="M1613 1124.5C1613 1218.11 1537.11 1294 1443.5 1294C1349.89 1294 1274 1218.11 1274 1124.5C1274 1030.89 1349.89 955 1443.5 955C1537.11 955 1613 1030.89 1613 1124.5ZM1348.03 1124.5C1348.03 1177.23 1390.77 1219.97 1443.5 1219.97C1496.23 1219.97 1538.97 1177.23 1538.97 1124.5C1538.97 1071.77 1496.23 1029.03 1443.5 1029.03C1390.77 1029.03 1348.03 1071.77 1348.03 1124.5Z" fill="#E1789E"/>
<defs>
<radialGradient id="paint0_radial_0_1" cx="0" cy="0" r="1" gradientUnits="userSpaceOnUse" gradientTransform="translate(1570 1424.42) rotate(40.1629) scale(1714.18 2710.54)">
<stop stop-color="#0029FF"/>
<stop offset="0.201042"/>
<stop offset="0.659375"/>
<stop offset="0.867708" stop-color="#FF0000" stop-opacity="0.75"/>
<stop offset="1" stop-color="#FFE600" stop-opacity="0.75"/>
</radialGradient>
</defs>
</svg>
