<svg width="1440" height="1024" viewBox="0 0 1440 1024" fill="none" xmlns="http://www.w3.org/2000/svg">
<path d="M1493 925.5C1493 1004.75 1428.75 1069 1349.5 1069C1270.25 1069 1206 1004.75 1206 925.5C1206 846.247 1270.25 782 1349.5 782C1428.75 782 1493 846.247 1493 925.5ZM1268.67 925.5C1268.67 970.141 1304.86 1006.33 1349.5 1006.33C1394.14 1006.33 1430.33 970.141 1430.33 925.5C1430.33 880.859 1394.14 844.671 1349.5 844.671C1304.86 844.671 1268.67 880.859 1268.67 925.5Z" fill="#E2E461"/>
<path d="M194 29.5C194 108.753 129.753 173 50.5 173C-28.7529 173 -93 108.753 -93 29.5C-93 -49.7529 -28.7529 -114 50.5 -114C129.753 -114 194 -49.7529 194 29.5ZM-30.3291 29.5C-30.3291 74.1407 5.85931 110.329 50.5 110.329C95.1407 110.329 131.329 74.1407 131.329 29.5C131.329 -15.1407 95.1407 -51.3291 50.5 -51.3291C5.85931 -51.3291 -30.3291 -15.1407 -30.3291 29.5Z" fill="#E2E461"/>
<path d="M1674 787.5C1674 881.112 1598.11 957 1504.5 957C1410.89 957 1335 881.112 1335 787.5C1335 693.888 1410.89 618 1504.5 618C1598.11 618 1674 693.888 1674 787.5ZM1409.03 787.5C1409.03 840.229 1451.77 882.974 1504.5 882.974C1557.23 882.974 1599.97 840.229 1599.97 787.5C1599.97 734.771 1557.23 692.026 1504.5 692.026C1451.77 692.026 1409.03 734.771 1409.03 787.5Z" fill="#E1789E"/>
</svg>
