<svg width="121" height="406" viewBox="0 0 121 406" fill="none" xmlns="http://www.w3.org/2000/svg">
<path d="M-135.904 232.683C-185.11 170.556 -174.636 80.3029 -112.51 31.0964C-50.3829 -18.1102 39.8706 -7.63633 89.0771 54.4904C138.284 116.617 127.81 206.871 65.6831 256.077C3.55637 305.284 -86.6971 294.81 -135.904 232.683ZM68.5516 70.7473C28.3235 19.9565 -45.4619 11.3938 -96.2527 51.6219C-147.043 91.85 -155.606 165.635 -115.378 216.426C-75.15 267.217 -1.36463 275.78 49.4262 235.552C100.217 195.324 108.78 121.538 68.5516 70.7473Z" fill="#FFCBCB"/>
<path d="M-178.904 350.683C-228.11 288.556 -217.636 198.303 -155.51 149.096C-93.3829 99.8898 -3.12941 110.364 46.0771 172.49C95.2837 234.617 84.8098 324.871 22.6831 374.077C-39.4436 423.284 -129.697 412.81 -178.904 350.683ZM25.5516 188.747C-14.6765 137.957 -88.4619 129.394 -139.253 169.622C-190.043 209.85 -198.606 283.635 -158.378 334.426C-118.15 385.217 -44.3646 393.78 6.42617 353.552C57.217 313.324 65.7797 239.538 25.5516 188.747Z" fill="#FF5252"/>
</svg>
