<svg width="775" height="72" viewBox="0 0 775 72" fill="none" xmlns="http://www.w3.org/2000/svg">
<path d="M37.456 28.12C39.328 28.12 40.2987 29.0907 40.368 31.032L41.72 64H34.388L33.192 34.204H32.256L26.484 56.616C26.1373 58.28 25.0973 59.112 23.364 59.112H18.372C16.604 59.112 15.5467 58.28 15.2 56.616L9.376 34.204H8.492L7.4 64H0.0680002L1.368 31.032C1.43733 29.0907 2.42533 28.12 4.332 28.12H11.768C13.4667 28.12 14.5067 28.952 14.888 30.616L19.516 48.712C19.724 49.544 19.8973 50.3933 20.036 51.26C20.1747 52.092 20.3307 52.9413 20.504 53.808H21.18C21.3533 52.9413 21.5093 52.092 21.648 51.26C21.7867 50.3933 21.96 49.5267 22.168 48.66L26.744 30.616C27.0907 28.952 28.148 28.12 29.916 28.12H37.456ZM55.8104 27.964C58.6184 27.964 61.5304 27.9987 64.5464 28.068C67.5624 28.1027 70.3184 28.2413 72.8144 28.484L72.4504 34.256H58.6704C56.937 34.256 56.0704 35.14 56.0704 36.908V42.524H70.4744V48.14H56.0704V55.212C56.0704 56.98 56.937 57.864 58.6704 57.864H72.4504L72.8144 63.636C70.3184 63.8787 67.5624 64.0173 64.5464 64.052C61.5304 64.0867 58.6184 64.104 55.8104 64.104C53.4877 64.104 51.6157 63.4627 50.1944 62.18C48.8077 60.8627 48.1144 59.112 48.1144 56.928V35.192C48.1144 33.008 48.825 31.2573 50.2464 29.94C51.6677 28.6227 53.5224 27.964 55.8104 27.964ZM84.8837 28.12C85.9583 31.448 86.8597 34.1867 87.5877 36.336C88.3503 38.4853 89.165 40.0627 90.0317 41.068C90.8983 42.0733 92.0423 42.576 93.4637 42.576H95.9597C95.6823 41.1893 95.5437 39.7507 95.5437 38.26V28.12H103.084V38.26C103.084 38.988 103.049 39.716 102.98 40.444C102.91 41.172 102.806 41.8827 102.668 42.576H104.956C106.377 42.576 107.521 42.0733 108.388 41.068C109.254 40.0627 110.069 38.4853 110.832 36.336C111.594 34.1867 112.513 31.448 113.588 28.12H121.648C120.746 31.032 119.949 33.528 119.256 35.608C118.597 37.6533 117.904 39.352 117.176 40.704C116.482 42.0213 115.598 43.044 114.524 43.772C113.484 44.4653 112.114 44.916 110.416 45.124V45.384C112.184 45.6267 113.622 46.112 114.732 46.84C115.876 47.5333 116.846 48.5907 117.644 50.012C118.441 51.3987 119.204 53.236 119.932 55.524C120.694 57.812 121.596 60.6373 122.636 64H114.316C113.31 60.9493 112.461 58.4013 111.768 56.356C111.109 54.276 110.468 52.6467 109.844 51.468C109.22 50.2547 108.526 49.388 107.764 48.868C107.036 48.348 106.117 48.088 105.008 48.088H102.668C102.772 48.712 102.858 49.3187 102.928 49.908C103.032 50.4973 103.084 51.0693 103.084 51.624V64H95.4917V51.624C95.4917 51.0693 95.5263 50.4973 95.5957 49.908C95.6997 49.3187 95.8037 48.712 95.9077 48.088H93.4637C92.3543 48.088 91.4183 48.348 90.6557 48.868C89.9277 49.388 89.2517 50.2547 88.6277 51.468C88.0383 52.6467 87.397 54.276 86.7037 56.356C86.0103 58.4013 85.161 60.9493 84.1557 64H75.8357C76.8757 60.6373 77.7597 57.812 78.4877 55.524C79.2503 53.236 80.0303 51.3987 80.8277 50.012C81.625 48.5907 82.5783 47.5333 83.6877 46.84C84.8317 46.112 86.2877 45.6267 88.0557 45.384V45.124C86.357 44.916 84.9703 44.4653 83.8957 43.772C82.8557 43.044 81.9717 42.0213 81.2437 40.704C80.5157 39.352 79.8223 37.6533 79.1637 35.608C78.505 33.528 77.725 31.032 76.8237 28.12H84.8837ZM160.88 58.436V71.852H155.212L154.64 64H130.772L130.2 71.852H124.532V58.436H128.328C129.784 54.7613 130.859 51 131.552 47.152C132.246 43.2693 132.748 39.3693 133.06 35.452C133.199 33.268 133.979 31.5 135.4 30.148C136.856 28.796 138.763 28.12 141.12 28.12H156.2V58.436H160.88ZM140.444 36.752C140.167 40.0453 139.838 42.9573 139.456 45.488C139.075 48.0187 138.572 50.324 137.948 52.404C137.359 54.484 136.596 56.4947 135.66 58.436H148.296V33.684H143.512C142.507 33.684 141.762 33.9267 141.276 34.412C140.791 34.8973 140.514 35.6773 140.444 36.752ZM170.313 28.12L175.929 47.204C176.068 47.6547 176.414 47.88 176.969 47.88H178.217L184.405 28.12H192.517L183.781 54.692C183.157 56.668 182.464 58.3667 181.701 59.788C180.973 61.1747 180.054 62.284 178.945 63.116C177.87 63.9133 176.484 64.3813 174.785 64.52C173.988 64.5893 173.034 64.5893 171.925 64.52C170.85 64.4853 169.776 64.3987 168.701 64.26C167.661 64.1213 166.777 63.9653 166.049 63.792L166.881 58.28C168.961 58.384 170.556 58.4187 171.665 58.384C172.774 58.3493 173.624 58.0893 174.213 57.604C174.802 57.084 175.322 56.2173 175.773 55.004L176.137 53.756H174.161C172.844 53.756 171.821 53.444 171.093 52.82C170.4 52.1613 169.88 51.26 169.533 50.116L162.149 28.12H170.313ZM204.309 28.12V41.9H217.101V28.12H225.005V64H217.101V47.828H204.309V64H196.353V28.12H204.309ZM249.514 28.12C250.172 28.12 250.744 28.3107 251.23 28.692C251.75 29.0733 252.096 29.576 252.27 30.2L262.67 64H254.558L251.906 54.484H239.53L236.93 64H228.818L239.218 30.2C239.391 29.576 239.72 29.0733 240.206 28.692C240.726 28.3107 241.315 28.12 241.974 28.12H249.514ZM244.262 37.584L241.194 48.556H250.242L247.226 37.584C247.052 37.0293 246.896 36.4573 246.758 35.868C246.654 35.244 246.55 34.6547 246.446 34.1H245.042C244.938 34.6547 244.816 35.244 244.678 35.868C244.539 36.4573 244.4 37.0293 244.262 37.584ZM280.212 27.6C283.54 27.6 286.157 27.9467 288.064 28.64C289.97 29.3333 291.322 30.5293 292.12 32.228C292.952 33.9267 293.368 36.3013 293.368 39.352C293.368 42.4027 292.969 44.7773 292.172 46.476C291.409 48.1747 290.126 49.3533 288.324 50.012C286.556 50.6707 284.181 51.0173 281.2 51.052C280.021 51.0173 278.842 50.9653 277.664 50.896C276.52 50.8267 275.41 50.74 274.336 50.636V64H266.432V28.12C267.853 27.9813 269.205 27.8773 270.488 27.808C271.77 27.7387 273.157 27.6867 274.648 27.652C276.173 27.6173 278.028 27.6 280.212 27.6ZM280.004 33.58C278.964 33.58 277.958 33.58 276.988 33.58C276.052 33.58 275.168 33.58 274.336 33.58V45.072H280.004C282.084 45.072 283.505 44.6907 284.268 43.928C285.03 43.1653 285.412 41.64 285.412 39.352C285.412 37.064 285.03 35.5387 284.268 34.776C283.505 33.9787 282.084 33.58 280.004 33.58ZM312.822 27.392C315.664 27.392 318.056 27.704 319.998 28.328C321.974 28.9173 323.568 29.9227 324.782 31.344C325.995 32.7653 326.879 34.672 327.434 37.064C327.988 39.456 328.266 42.4547 328.266 46.06C328.266 49.6653 327.988 52.664 327.434 55.056C326.879 57.448 325.995 59.3547 324.782 60.776C323.568 62.1973 321.974 63.2027 319.998 63.792C318.056 64.3813 315.664 64.676 312.822 64.676C309.979 64.676 307.57 64.3813 305.594 63.792C303.618 63.2027 302.023 62.1973 300.81 60.776C299.596 59.3547 298.712 57.448 298.158 55.056C297.638 52.664 297.378 49.6653 297.378 46.06C297.378 42.4547 297.638 39.456 298.158 37.064C298.712 34.672 299.596 32.7653 300.81 31.344C302.023 29.9227 303.618 28.9173 305.594 28.328C307.57 27.704 309.979 27.392 312.822 27.392ZM312.822 33.632C310.984 33.632 309.546 33.996 308.506 34.724C307.5 35.452 306.772 36.7173 306.322 38.52C305.906 40.3227 305.698 42.836 305.698 46.06C305.698 49.284 305.906 51.7973 306.322 53.6C306.772 55.4027 307.5 56.668 308.506 57.396C309.546 58.0893 310.984 58.436 312.822 58.436C314.624 58.436 316.046 58.0893 317.086 57.396C318.126 56.668 318.854 55.4027 319.27 53.6C319.686 51.7973 319.894 49.284 319.894 46.06C319.894 42.836 319.686 40.3227 319.27 38.52C318.854 36.7173 318.126 35.452 317.086 34.724C316.046 33.996 314.624 33.632 312.822 33.632ZM366.798 58.436V71.852H361.13L360.558 64H336.69L336.118 71.852H330.45V58.436H334.246C335.702 54.7613 336.777 51 337.47 47.152C338.164 43.2693 338.666 39.3693 338.978 35.452C339.117 33.268 339.897 31.5 341.318 30.148C342.774 28.796 344.681 28.12 347.038 28.12H362.118V58.436H366.798ZM346.362 36.752C346.085 40.0453 345.756 42.9573 345.374 45.488C344.993 48.0187 344.49 50.324 343.866 52.404C343.277 54.484 342.514 56.4947 341.578 58.436H354.214V33.684H349.43C348.425 33.684 347.68 33.9267 347.194 34.412C346.709 34.8973 346.432 35.6773 346.362 36.752ZM379.657 28.12V41.9H392.449V28.12H400.353V64H392.449V47.828H379.657V64H371.701V28.12H379.657ZM421.065 41.484C424.359 41.484 426.941 41.848 428.813 42.576C430.72 43.2693 432.072 44.4653 432.869 46.164C433.701 47.828 434.117 50.0987 434.117 52.976C434.117 55.9573 433.719 58.28 432.921 59.944C432.124 61.608 430.859 62.7693 429.125 63.428C427.392 64.0867 425.156 64.416 422.417 64.416C420.233 64.416 418.327 64.3987 416.697 64.364C415.103 64.364 413.629 64.3293 412.277 64.26C410.925 64.1907 409.521 64.104 408.065 64H407.857V28.12H415.813V41.484H421.065ZM447.221 28.12V64H439.265V28.12H447.221ZM421.065 46.84H415.813V58.488C417.408 58.488 419.159 58.488 421.065 58.488C422.452 58.488 423.509 58.3493 424.237 58.072C424.965 57.76 425.468 57.188 425.745 56.356C426.023 55.524 426.161 54.328 426.161 52.768C426.161 51.2773 426.023 50.0987 425.745 49.232C425.503 48.3653 425.017 47.7587 424.289 47.412C423.561 47.0307 422.487 46.84 421.065 46.84ZM484.316 28.12V64H476.724V42.68C476.724 41.8827 476.759 41.0853 476.828 40.288C476.898 39.456 477.002 38.6413 477.14 37.844H476.828C476.274 39.508 475.598 41.068 474.8 42.524L462.476 64H454.728V28.12H462.32V49.024C462.32 49.8213 462.268 50.6533 462.164 51.52C462.095 52.3867 462.008 53.236 461.904 54.068H462.164C462.754 52.4387 463.482 50.8613 464.348 49.336L476.568 28.12H484.316ZM473.396 17.356H478.388C478.562 18.7773 478.319 20.112 477.66 21.36C477.036 22.5733 476.048 23.5613 474.696 24.324C473.379 25.052 471.784 25.416 469.912 25.416C468.006 25.416 466.376 25.052 465.024 24.324C463.672 23.5613 462.667 22.5733 462.008 21.36C461.35 20.112 461.124 18.7773 461.332 17.356H466.324C466.22 18.916 466.48 20.0253 467.104 20.684C467.728 21.3427 468.664 21.672 469.912 21.672C471.091 21.672 471.992 21.3427 472.616 20.684C473.24 20.0253 473.5 18.916 473.396 17.356ZM510.976 28.12V38.26C510.976 39.7507 510.837 41.1893 510.56 42.576H513.108C514.911 42.576 516.332 42.0733 517.372 41.068C518.412 40.0627 519.313 38.5027 520.076 36.388C520.839 34.2387 521.705 31.4827 522.676 28.12H530.736C529.765 31.0667 528.933 33.58 528.24 35.66C527.547 37.74 526.819 39.4387 526.056 40.756C525.328 42.0733 524.427 43.0787 523.352 43.772C522.312 44.4653 520.943 44.916 519.244 45.124V45.384C521.047 45.6267 522.503 46.112 523.612 46.84C524.756 47.5333 525.727 48.5907 526.524 50.012C527.356 51.3987 528.153 53.236 528.916 55.524C529.679 57.812 530.615 60.6373 531.724 64H523.404C522.468 60.9493 521.653 58.4013 520.96 56.356C520.301 54.276 519.643 52.6467 518.984 51.468C518.325 50.2547 517.545 49.388 516.644 48.868C515.743 48.348 514.581 48.088 513.16 48.088H510.56C510.699 48.712 510.803 49.3187 510.872 49.908C510.941 50.4973 510.976 51.0693 510.976 51.624V64H503.072V28.12H510.976ZM550.021 27.392C552.863 27.392 555.255 27.704 557.197 28.328C559.173 28.9173 560.767 29.9227 561.981 31.344C563.194 32.7653 564.078 34.672 564.633 37.064C565.187 39.456 565.465 42.4547 565.465 46.06C565.465 49.6653 565.187 52.664 564.633 55.056C564.078 57.448 563.194 59.3547 561.981 60.776C560.767 62.1973 559.173 63.2027 557.197 63.792C555.255 64.3813 552.863 64.676 550.021 64.676C547.178 64.676 544.769 64.3813 542.793 63.792C540.817 63.2027 539.222 62.1973 538.009 60.776C536.795 59.3547 535.911 57.448 535.357 55.056C534.837 52.664 534.577 49.6653 534.577 46.06C534.577 42.4547 534.837 39.456 535.357 37.064C535.911 34.672 536.795 32.7653 538.009 31.344C539.222 29.9227 540.817 28.9173 542.793 28.328C544.769 27.704 547.178 27.392 550.021 27.392ZM550.021 33.632C548.183 33.632 546.745 33.996 545.705 34.724C544.699 35.452 543.971 36.7173 543.521 38.52C543.105 40.3227 542.897 42.836 542.897 46.06C542.897 49.284 543.105 51.7973 543.521 53.6C543.971 55.4027 544.699 56.668 545.705 57.396C546.745 58.0893 548.183 58.436 550.021 58.436C551.823 58.436 553.245 58.0893 554.285 57.396C555.325 56.668 556.053 55.4027 556.469 53.6C556.885 51.7973 557.093 49.284 557.093 46.06C557.093 42.836 556.885 40.3227 556.469 38.52C556.053 36.7173 555.325 35.452 554.285 34.724C553.245 33.996 551.823 33.632 550.021 33.632ZM579.634 28.12V41.9H592.426V28.12H600.33V64H592.426V47.828H579.634V64H571.678V28.12H579.634ZM615.738 28.12V38.26C615.738 39.7507 615.599 41.1893 615.322 42.576H617.87C619.673 42.576 621.094 42.0733 622.134 41.068C623.174 40.0627 624.075 38.5027 624.838 36.388C625.601 34.2387 626.467 31.4827 627.438 28.12H635.498C634.527 31.0667 633.695 33.58 633.002 35.66C632.309 37.74 631.581 39.4387 630.818 40.756C630.09 42.0733 629.189 43.0787 628.114 43.772C627.074 44.4653 625.705 44.916 624.006 45.124V45.384C625.809 45.6267 627.265 46.112 628.374 46.84C629.518 47.5333 630.489 48.5907 631.286 50.012C632.118 51.3987 632.915 53.236 633.678 55.524C634.441 57.812 635.377 60.6373 636.486 64H628.166C627.23 60.9493 626.415 58.4013 625.722 56.356C625.063 54.276 624.405 52.6467 623.746 51.468C623.087 50.2547 622.307 49.388 621.406 48.868C620.505 48.348 619.343 48.088 617.922 48.088H615.322C615.461 48.712 615.565 49.3187 615.634 49.908C615.703 50.4973 615.738 51.0693 615.738 51.624V64H607.834V28.12H615.738ZM645.88 28.12L651.496 47.204C651.634 47.6547 651.981 47.88 652.536 47.88H653.784L659.972 28.12H668.084L659.348 54.692C658.724 56.668 658.03 58.3667 657.268 59.788C656.54 61.1747 655.621 62.284 654.512 63.116C653.437 63.9133 652.05 64.3813 650.352 64.52C649.554 64.5893 648.601 64.5893 647.492 64.52C646.417 64.4853 645.342 64.3987 644.268 64.26C643.228 64.1213 642.344 63.9653 641.616 63.792L642.448 58.28C644.528 58.384 646.122 58.4187 647.232 58.384C648.341 58.3493 649.19 58.0893 649.78 57.604C650.369 57.084 650.889 56.2173 651.34 55.004L651.704 53.756H649.728C648.41 53.756 647.388 53.444 646.66 52.82C645.966 52.1613 645.446 51.26 645.1 50.116L637.716 28.12H645.88ZM685.7 27.6C689.028 27.6 691.645 27.9467 693.552 28.64C695.458 29.3333 696.81 30.5293 697.608 32.228C698.44 33.9267 698.856 36.3013 698.856 39.352C698.856 42.4027 698.457 44.7773 697.66 46.476C696.897 48.1747 695.614 49.3533 693.812 50.012C692.044 50.6707 689.669 51.0173 686.688 51.052C685.509 51.0173 684.33 50.9653 683.152 50.896C682.008 50.8267 680.898 50.74 679.824 50.636V64H671.92V28.12C673.341 27.9813 674.693 27.8773 675.976 27.808C677.258 27.7387 678.645 27.6867 680.136 27.652C681.661 27.6173 683.516 27.6 685.7 27.6ZM685.492 33.58C684.452 33.58 683.446 33.58 682.476 33.58C681.54 33.58 680.656 33.58 679.824 33.58V45.072H685.492C687.572 45.072 688.993 44.6907 689.756 43.928C690.518 43.1653 690.9 41.64 690.9 39.352C690.9 37.064 690.518 35.5387 689.756 34.776C688.993 33.9787 687.572 33.58 685.492 33.58ZM718.05 27.496C719.714 27.496 721.153 27.548 722.366 27.652C723.579 27.7213 724.689 27.8427 725.694 28.016C726.699 28.1893 727.739 28.4147 728.814 28.692L728.19 34.568C727.046 34.4987 725.989 34.4467 725.018 34.412C724.047 34.3773 723.007 34.3427 721.898 34.308C720.823 34.2733 719.541 34.256 718.05 34.256C716.282 34.256 714.895 34.62 713.89 35.348C712.885 36.0413 712.174 37.2373 711.758 38.936C711.377 40.6347 711.186 43.0093 711.186 46.06C711.186 49.076 711.377 51.4507 711.758 53.184C712.174 54.8827 712.885 56.0787 713.89 56.772C714.895 57.4653 716.282 57.812 718.05 57.812C720.442 57.812 722.453 57.7947 724.082 57.76C725.711 57.6907 727.323 57.552 728.918 57.344L729.594 63.168C727.93 63.688 726.231 64.052 724.498 64.26C722.765 64.5027 720.615 64.624 718.05 64.624C714.341 64.624 711.359 64.0347 709.106 62.856C706.887 61.6427 705.293 59.684 704.322 56.98C703.351 54.276 702.866 50.636 702.866 46.06C702.866 41.484 703.351 37.844 704.322 35.14C705.293 32.436 706.887 30.4947 709.106 29.316C711.359 28.1027 714.341 27.496 718.05 27.496Z" fill="black"/>
<path d="M750.756 28.577C750.872 26.8779 751.372 25.3573 751.843 23.7264C753.036 19.5899 753.718 15.3518 754.543 11.1331C755.107 8.25154 755.668 5.3636 756.248 2.48641C756.468 1.39596 756.734 0.334614 757.772 1.52232C760.146 4.23857 761.71 7.93411 763.37 11.0728C764.177 12.5995 766.762 17.5109 767.564 19.2374C768.668 21.6124 768.383 21.4782 766.825 20.4275C761.926 17.1246 755.942 15.0864 750.274 13.5583C748.931 13.1965 747.57 12.8988 746.245 12.4737C745.099 12.106 748.281 11.1346 749.429 10.7715C756.947 8.39293 764.8 6.89962 772.196 4.15849C774.205 3.41408 774.725 2.7585 772.785 4.35432C765.392 10.4354 757.245 16.4322 752.265 24.7508C750.814 27.175 748.639 30.9652 749.398 34" stroke="#B00A29" stroke-width="2" stroke-linecap="round"/>
</svg>
