<svg width="510" height="11" viewBox="0 0 510 11" fill="none" xmlns="http://www.w3.org/2000/svg">
<path d="M1 1L20.9642 6.95945C29.8148 9.60144 39.2244 9.74017 48.1491 7.36025L58.3509 4.63975C67.2756 2.25983 76.6852 2.39856 85.5358 5.04055L93.1022 7.29916C101.233 9.72641 109.849 10.0442 118.137 8.22268L140.084 3.39904C147.273 1.81917 154.721 1.84575 161.898 3.47688L183.724 8.43718C191.143 10.1235 198.85 10.0941 206.257 8.35139L226.759 3.52739C233.834 1.8625 241.188 1.76044 248.307 3.22834L275.797 8.89626C282.527 10.2839 289.47 10.2694 296.194 8.85383L322.914 3.22869C329.891 1.75989 337.101 1.80017 344.061 3.34683L368.431 8.76237C375.074 10.2386 381.948 10.3432 388.633 9.06994L419.789 3.13548C427.168 1.7299 434.769 2.00511 442.027 3.94066L456.095 7.69204C464.233 9.86215 472.787 9.94141 480.964 7.92247L509 1" stroke="#B00A29" stroke-width="2"/>
</svg>
