<svg width="286" height="158" viewBox="0 0 286 158" fill="none" xmlns="http://www.w3.org/2000/svg">
<path d="M50.3709 84.9C51.9709 84.9 53.3542 84.95 54.5209 85.05C55.6876 85.1167 56.7542 85.2333 57.7209 85.4C58.6876 85.5667 59.6876 85.7833 60.7209 86.05L60.1209 91.7C59.0209 91.6333 58.0042 91.5833 57.0709 91.55C56.1376 91.5167 55.1376 91.4833 54.0709 91.45C53.0376 91.4167 51.8042 91.4 50.3709 91.4C48.6709 91.4 47.3376 91.75 46.3709 92.45C45.4042 93.1167 44.7209 94.2667 44.3209 95.9C43.9542 97.5333 43.7709 99.8167 43.7709 102.75C43.7709 105.65 43.9542 107.933 44.3209 109.6C44.7209 111.233 45.4042 112.383 46.3709 113.05C47.3376 113.717 48.6709 114.05 50.3709 114.05C52.6709 114.05 54.6042 114.033 56.1709 114C57.7376 113.933 59.2876 113.8 60.8209 113.6L61.4709 119.2C59.8709 119.7 58.2376 120.05 56.5709 120.25C54.9042 120.483 52.8376 120.6 50.3709 120.6C46.8042 120.6 43.9376 120.033 41.7709 118.9C39.6376 117.733 38.1042 115.85 37.1709 113.25C36.2376 110.65 35.7709 107.15 35.7709 102.75C35.7709 98.35 36.2376 94.85 37.1709 92.25C38.1042 89.65 39.6376 87.7833 41.7709 86.65C43.9376 85.4833 46.8042 84.9 50.3709 84.9ZM79.5271 84.8C82.2605 84.8 84.5605 85.1 86.4271 85.7C88.3271 86.2667 89.8605 87.2333 91.0271 88.6C92.1938 89.9667 93.0438 91.8 93.5771 94.1C94.1105 96.4 94.3772 99.2833 94.3772 102.75C94.3772 106.217 94.1105 109.1 93.5771 111.4C93.0438 113.7 92.1938 115.533 91.0271 116.9C89.8605 118.267 88.3271 119.233 86.4271 119.8C84.5605 120.367 82.2605 120.65 79.5271 120.65C76.7938 120.65 74.4771 120.367 72.5771 119.8C70.6771 119.233 69.1438 118.267 67.9771 116.9C66.8105 115.533 65.9605 113.7 65.4271 111.4C64.9271 109.1 64.6771 106.217 64.6771 102.75C64.6771 99.2833 64.9271 96.4 65.4271 94.1C65.9605 91.8 66.8105 89.9667 67.9771 88.6C69.1438 87.2333 70.6771 86.2667 72.5771 85.7C74.4771 85.1 76.7938 84.8 79.5271 84.8ZM79.5271 90.8C77.7605 90.8 76.3771 91.15 75.3771 91.85C74.4105 92.55 73.7105 93.7667 73.2771 95.5C72.8771 97.2333 72.6771 99.65 72.6771 102.75C72.6771 105.85 72.8771 108.267 73.2771 110C73.7105 111.733 74.4105 112.95 75.3771 113.65C76.3771 114.317 77.7605 114.65 79.5271 114.65C81.2605 114.65 82.6271 114.317 83.6271 113.65C84.6271 112.95 85.3271 111.733 85.7271 110C86.1271 108.267 86.3271 105.85 86.3271 102.75C86.3271 99.65 86.1271 97.2333 85.7271 95.5C85.3271 93.7667 84.6271 92.55 83.6271 91.85C82.6271 91.15 81.2605 90.8 79.5271 90.8ZM113.351 99.6C116.551 99.6 119.084 99.9167 120.951 100.55C122.818 101.183 124.151 102.267 124.951 103.8C125.751 105.3 126.151 107.367 126.151 110C126.151 112.9 125.701 115.1 124.801 116.6C123.901 118.1 122.518 119.117 120.651 119.65C118.818 120.15 116.501 120.4 113.701 120.4C111.134 120.4 108.834 120.367 106.801 120.3C104.768 120.267 102.684 120.167 100.551 120H100.351V85.5C102.351 85.3667 104.334 85.2833 106.301 85.25C108.301 85.1833 110.234 85.15 112.101 85.15C114.168 85.15 116.184 85.1833 118.151 85.25C120.118 85.3167 122.068 85.4 124.001 85.5L123.401 91.2H107.951V99.6H113.351ZM113.351 104.6H107.951V114.75C109.551 114.75 111.351 114.75 113.351 114.75C114.751 114.75 115.818 114.617 116.551 114.35C117.284 114.083 117.784 113.6 118.051 112.9C118.351 112.167 118.501 111.1 118.501 109.7C118.501 108.4 118.368 107.383 118.101 106.65C117.834 105.883 117.334 105.35 116.601 105.05C115.868 104.75 114.784 104.6 113.351 104.6ZM144.203 98.35C147.37 98.35 149.853 98.7 151.653 99.4C153.487 100.067 154.787 101.217 155.553 102.85C156.353 104.45 156.753 106.633 156.753 109.4C156.753 112.267 156.37 114.5 155.603 116.1C154.837 117.7 153.62 118.817 151.953 119.45C150.287 120.083 148.137 120.4 145.503 120.4C143.403 120.4 141.57 120.383 140.003 120.35C138.47 120.35 137.053 120.317 135.753 120.25C134.453 120.183 133.103 120.1 131.703 120H131.503V85.5H139.153V98.35H144.203ZM169.353 85.5V120H161.703V85.5H169.353ZM144.203 103.5H139.153V114.7C140.687 114.7 142.37 114.7 144.203 114.7C145.537 114.7 146.553 114.567 147.253 114.3C147.953 114 148.437 113.45 148.703 112.65C148.97 111.85 149.103 110.7 149.103 109.2C149.103 107.767 148.97 106.633 148.703 105.8C148.47 104.967 148.003 104.383 147.303 104.05C146.603 103.683 145.57 103.5 144.203 103.5ZM202.222 85.5V91.5H191.822V120H184.222V91.5H173.822V85.5H202.222ZM235.1 85.5V120H227.8V99.5C227.8 98.7333 227.833 97.9667 227.9 97.2C227.966 96.4 228.066 95.6167 228.2 94.85H227.9C227.366 96.45 226.716 97.95 225.95 99.35L214.1 120H206.65V85.5H213.95V105.6C213.95 106.367 213.9 107.167 213.8 108C213.733 108.833 213.65 109.65 213.55 110.45H213.8C214.366 108.883 215.066 107.367 215.9 105.9L227.65 85.5H235.1ZM254.094 85C256.128 85 257.844 85.0167 259.244 85.05C260.678 85.0833 261.994 85.1333 263.194 85.2C264.394 85.2667 265.678 85.3667 267.044 85.5V120H259.444V106.7C258.011 106.7 256.311 106.7 254.344 106.7C253.311 106.7 252.511 106.917 251.944 107.35C251.411 107.783 250.994 108.567 250.694 109.7L248.144 120H240.094L242.994 109.4C243.294 108.2 243.728 107.25 244.294 106.55C244.861 105.85 245.478 105.333 246.144 105C246.844 104.633 247.494 104.4 248.094 104.3V104C245.628 103.7 243.911 102.767 242.944 101.2C241.978 99.6333 241.511 97.6667 241.544 95.3C241.544 92.7333 241.978 90.7 242.844 89.2C243.711 87.7 245.061 86.6333 246.894 86C248.761 85.3333 251.161 85 254.094 85ZM254.144 100.95H259.444V90.75C258.644 90.75 257.811 90.75 256.944 90.75C256.078 90.75 255.178 90.75 254.244 90.75C252.344 90.75 251.028 91.1 250.294 91.8C249.561 92.4667 249.194 93.8 249.194 95.8C249.194 97.6333 249.528 98.95 250.194 99.75C250.894 100.55 252.211 100.95 254.144 100.95Z" fill="black"/>
<path d="M278.423 69.977C241.241 59.7672 202.907 60.3422 164.601 60.4919C142.627 60.5777 120.734 61.2767 98.9078 64.0049C77.7556 66.6489 56.3189 70.1886 36.8151 79.1548C23.5175 85.2679 3.89221 95.336 2.12395 111.958C-0.324981 134.978 34.1378 143.702 50.428 147.878C69.8511 152.858 89.8108 154.801 109.798 155.607C131.73 156.491 154.135 156.938 176.019 154.904C195.888 153.058 215.658 148.714 234.423 141.906C249.677 136.372 265.804 128.629 277.194 116.744C282.358 111.356 286.037 104.812 283.122 97.3347C278.639 85.8351 266.711 76.8227 257.213 69.8014C236.49 54.4807 213.047 43.7209 188.973 34.8029C149.995 20.3639 110.113 11.2958 69.7497 2" stroke="#B00A29" stroke-width="3" stroke-linecap="round"/>
</svg>
