<svg width="30" height="30" viewBox="0 0 30 30" fill="none" xmlns="http://www.w3.org/2000/svg">
<path d="M30 15C30 23.2843 23.2843 30 15 30C6.71573 30 0 23.2843 0 15C0 6.71573 6.71573 0 15 0C23.2843 0 30 6.71573 30 15ZM1.91479 15C1.91479 22.2268 7.77324 28.0852 15 28.0852C22.2268 28.0852 28.0852 22.2268 28.0852 15C28.0852 7.77324 22.2268 1.91479 15 1.91479C7.77324 1.91479 1.91479 7.77324 1.91479 15Z" fill="white"/>
<rect x="13.8679" y="5.66037" width="2.26415" height="11.0377" rx="1.13208" fill="white"/>
<rect x="22.6415" y="14.434" width="2.26415" height="8.77359" rx="1.13208" transform="rotate(90 22.6415 14.434)" fill="white"/>
</svg>
