<svg width="697" height="67" viewBox="0 0 697 67" fill="none" xmlns="http://www.w3.org/2000/svg">
<path d="M15.628 0.495999C17.292 0.495999 18.7307 0.547998 19.944 0.651997C21.1573 0.721331 22.2667 0.842665 23.272 1.016C24.2773 1.18933 25.3173 1.41467 26.392 1.692L25.768 7.568C24.624 7.49867 23.5667 7.44667 22.596 7.412C21.6253 7.37733 20.5853 7.34266 19.476 7.308C18.4013 7.27333 17.1187 7.256 15.628 7.256C13.86 7.256 12.4733 7.62 11.468 8.348C10.4627 9.04133 9.752 10.2373 9.336 11.936C8.95467 13.6347 8.764 16.0093 8.764 19.06C8.764 22.076 8.95467 24.4507 9.336 26.184C9.752 27.8827 10.4627 29.0787 11.468 29.772C12.4733 30.4653 13.86 30.812 15.628 30.812C18.02 30.812 20.0307 30.7947 21.66 30.76C23.2893 30.6907 24.9013 30.552 26.496 30.344L27.172 36.168C25.508 36.688 23.8093 37.052 22.076 37.26C20.3427 37.5027 18.1933 37.624 15.628 37.624C11.9187 37.624 8.93733 37.0347 6.684 35.856C4.46533 34.6427 2.87067 32.684 1.9 29.98C0.929333 27.276 0.444 23.636 0.444 19.06C0.444 14.484 0.929333 10.844 1.9 8.14C2.87067 5.436 4.46533 3.49467 6.684 2.316C8.93733 1.10266 11.9187 0.495999 15.628 0.495999ZM69.0263 1.12C70.8983 1.12 71.869 2.09066 71.9383 4.032L73.2903 37H65.9583L64.7623 7.204H63.8263L58.0543 29.616C57.7076 31.28 56.6676 32.112 54.9343 32.112H49.9423C48.1743 32.112 47.117 31.28 46.7703 29.616L40.9463 7.204H40.0623L38.9703 37H31.6383L32.9383 4.032C33.0076 2.09066 33.9956 1.12 35.9023 1.12H43.3383C45.037 1.12 46.077 1.952 46.4583 3.616L51.0863 21.712C51.2943 22.544 51.4676 23.3933 51.6063 24.26C51.745 25.092 51.901 25.9413 52.0743 26.808H52.7503C52.9236 25.9413 53.0796 25.092 53.2183 24.26C53.357 23.3933 53.5303 22.5267 53.7383 21.66L58.3143 3.616C58.661 1.952 59.7183 1.12 61.4863 1.12H69.0263ZM94.1927 0.391997C97.0354 0.391997 99.4274 0.703997 101.369 1.328C103.345 1.91733 104.939 2.92267 106.153 4.344C107.366 5.76533 108.25 7.672 108.805 10.064C109.359 12.456 109.637 15.4547 109.637 19.06C109.637 22.6653 109.359 25.664 108.805 28.056C108.25 30.448 107.366 32.3547 106.153 33.776C104.939 35.1973 103.345 36.2027 101.369 36.792C99.4274 37.3813 97.0354 37.676 94.1927 37.676C91.35 37.676 88.9407 37.3813 86.9647 36.792C84.9887 36.2027 83.394 35.1973 82.1807 33.776C80.9674 32.3547 80.0834 30.448 79.5287 28.056C79.0087 25.664 78.7487 22.6653 78.7487 19.06C78.7487 15.4547 79.0087 12.456 79.5287 10.064C80.0834 7.672 80.9674 5.76533 82.1807 4.344C83.394 2.92267 84.9887 1.91733 86.9647 1.328C88.9407 0.703997 91.35 0.391997 94.1927 0.391997ZM94.1927 6.632C92.3554 6.632 90.9167 6.996 89.8767 7.724C88.8714 8.452 88.1434 9.71733 87.6927 11.52C87.2767 13.3227 87.0687 15.836 87.0687 19.06C87.0687 22.284 87.2767 24.7973 87.6927 26.6C88.1434 28.4027 88.8714 29.668 89.8767 30.396C90.9167 31.0893 92.3554 31.436 94.1927 31.436C95.9954 31.436 97.4167 31.0893 98.4567 30.396C99.4967 29.668 100.225 28.4027 100.641 26.6C101.057 24.7973 101.265 22.284 101.265 19.06C101.265 15.836 101.057 13.3227 100.641 11.52C100.225 9.71733 99.4967 8.452 98.4567 7.724C97.4167 6.996 95.9954 6.632 94.1927 6.632ZM142.068 1.12V7.36H131.252V37H123.348V7.36H112.532V1.12H142.068ZM160.454 0.599998C163.782 0.599998 166.399 0.946665 168.306 1.64C170.212 2.33333 171.564 3.52933 172.362 5.228C173.194 6.92667 173.61 9.30133 173.61 12.352C173.61 15.4027 173.211 17.7773 172.414 19.476C171.651 21.1747 170.368 22.3533 168.566 23.012C166.798 23.6707 164.423 24.0173 161.442 24.052C160.263 24.0173 159.084 23.9653 157.906 23.896C156.762 23.8267 155.652 23.74 154.578 23.636V37H146.674V1.12C148.095 0.981332 149.447 0.877332 150.73 0.807998C152.012 0.738666 153.399 0.686665 154.89 0.651997C156.415 0.617331 158.27 0.599998 160.454 0.599998ZM160.246 6.58C159.206 6.58 158.2 6.58 157.23 6.58C156.294 6.58 155.41 6.58 154.578 6.58V18.072H160.246C162.326 18.072 163.747 17.6907 164.51 16.928C165.272 16.1653 165.654 14.64 165.654 12.352C165.654 10.064 165.272 8.53867 164.51 7.776C163.747 6.97866 162.326 6.58 160.246 6.58ZM186.252 0.963999C189.06 0.963999 191.972 0.998665 194.988 1.068C198.004 1.10266 200.76 1.24133 203.256 1.484L202.892 7.256H189.112C187.378 7.256 186.512 8.14 186.512 9.908V15.524H200.916V21.14H186.512V28.212C186.512 29.98 187.378 30.864 189.112 30.864H202.892L203.256 36.636C200.76 36.8787 198.004 37.0173 194.988 37.052C191.972 37.0867 189.06 37.104 186.252 37.104C183.929 37.104 182.057 36.4627 180.636 35.18C179.249 33.8627 178.556 32.112 178.556 29.928V8.192C178.556 6.008 179.266 4.25733 180.688 2.94C182.109 1.62267 183.964 0.963999 186.252 0.963999ZM235.709 1.12V7.36H224.893V37H216.989V7.36H206.173V1.12H235.709ZM253.626 14.484C256.92 14.484 259.52 14.848 261.426 15.576C263.333 16.2693 264.702 17.4653 265.534 19.164C266.366 20.828 266.782 23.0987 266.782 25.976C266.782 28.9573 266.366 31.28 265.534 32.944C264.737 34.608 263.472 35.7693 261.738 36.428C260.005 37.0867 257.752 37.416 254.978 37.416C252.76 37.416 250.836 37.3987 249.206 37.364C247.612 37.364 246.121 37.3293 244.734 37.26C243.382 37.1907 241.978 37.104 240.522 37H240.314V1.12H248.27V14.484H253.626ZM253.626 19.84H248.27V31.488C249.865 31.488 251.65 31.488 253.626 31.488C255.013 31.488 256.088 31.3493 256.85 31.072C257.613 30.76 258.133 30.188 258.41 29.356C258.688 28.524 258.826 27.328 258.826 25.768C258.826 24.2773 258.688 23.0987 258.41 22.232C258.133 21.3653 257.613 20.7587 256.85 20.412C256.122 20.0307 255.048 19.84 253.626 19.84ZM297.101 0.703999C300.221 0.703999 302.7 0.981332 304.537 1.536C306.409 2.056 307.761 2.992 308.593 4.344C309.425 5.696 309.841 7.60266 309.841 10.064C309.841 12.6293 309.338 14.588 308.333 15.94C307.362 17.2573 305.75 18.02 303.497 18.228V18.488C306.27 18.7307 308.212 19.6667 309.321 21.296C310.43 22.9253 310.985 25.1787 310.985 28.056C310.985 30.5173 310.552 32.424 309.685 33.776C308.853 35.128 307.536 36.0813 305.733 36.636C303.93 37.156 301.608 37.416 298.765 37.416C296.442 37.416 294.414 37.3987 292.681 37.364C290.982 37.364 289.405 37.3293 287.949 37.26C286.528 37.1907 285.054 37.104 283.529 37V1.12C284.881 0.981332 286.198 0.894666 287.481 0.859997C288.798 0.790665 290.22 0.755999 291.745 0.755999C293.27 0.721332 295.056 0.703999 297.101 0.703999ZM296.685 6.476C295.645 6.476 294.674 6.476 293.773 6.476C292.872 6.476 292.04 6.476 291.277 6.476V15.888H297.101C299.042 15.888 300.377 15.576 301.105 14.952C301.868 14.328 302.249 13.0453 302.249 11.104C302.249 9.19733 301.85 7.94933 301.053 7.36C300.256 6.77067 298.8 6.476 296.685 6.476ZM297.205 20.932H291.277V31.644C293.08 31.644 295.108 31.644 297.361 31.644C298.817 31.644 299.961 31.5053 300.793 31.228C301.625 30.9507 302.197 30.448 302.509 29.72C302.856 28.992 303.029 27.9173 303.029 26.496C303.029 25.04 302.856 23.9133 302.509 23.116C302.162 22.3187 301.556 21.764 300.689 21.452C299.857 21.1053 298.696 20.932 297.205 20.932ZM336.07 1.12V11.26C336.07 12.7507 335.931 14.1893 335.654 15.576H338.202C340.005 15.576 341.426 15.0733 342.466 14.068C343.506 13.0627 344.407 11.5027 345.17 9.388C345.933 7.23866 346.799 4.48266 347.77 1.12H355.83C354.859 4.06667 354.027 6.58 353.334 8.66C352.641 10.74 351.913 12.4387 351.15 13.756C350.422 15.0733 349.521 16.0787 348.446 16.772C347.406 17.4653 346.037 17.916 344.338 18.124V18.384C346.141 18.6267 347.597 19.112 348.706 19.84C349.85 20.5333 350.821 21.5907 351.618 23.012C352.45 24.3987 353.247 26.236 354.01 28.524C354.773 30.812 355.709 33.6373 356.818 37H348.498C347.562 33.9493 346.747 31.4013 346.054 29.356C345.395 27.276 344.737 25.6467 344.078 24.468C343.419 23.2547 342.639 22.388 341.738 21.868C340.837 21.348 339.675 21.088 338.254 21.088H335.654C335.793 21.712 335.897 22.3187 335.966 22.908C336.035 23.4973 336.07 24.0693 336.07 24.624V37H328.166V1.12H336.07ZM391.016 1.12V37H383.424V15.68C383.424 14.8827 383.458 14.0853 383.528 13.288C383.597 12.456 383.701 11.6413 383.84 10.844H383.528C382.973 12.508 382.297 14.068 381.5 15.524L369.176 37H361.428V1.12H369.02V22.024C369.02 22.8213 368.968 23.6533 368.864 24.52C368.794 25.3867 368.708 26.236 368.604 27.068H368.864C369.453 25.4387 370.181 23.8613 371.048 22.336L383.268 1.12H391.016ZM406.454 1.12V14.9H419.246V1.12H427.15V37H419.246V20.828H406.454V37H398.498V1.12H406.454ZM448.798 0.391997C451.641 0.391997 454.033 0.703997 455.974 1.328C457.95 1.91733 459.545 2.92267 460.758 4.344C461.971 5.76533 462.855 7.672 463.41 10.064C463.965 12.456 464.242 15.4547 464.242 19.06C464.242 22.6653 463.965 25.664 463.41 28.056C462.855 30.448 461.971 32.3547 460.758 33.776C459.545 35.1973 457.95 36.2027 455.974 36.792C454.033 37.3813 451.641 37.676 448.798 37.676C445.955 37.676 443.546 37.3813 441.57 36.792C439.594 36.2027 437.999 35.1973 436.786 33.776C435.573 32.3547 434.689 30.448 434.134 28.056C433.614 25.664 433.354 22.6653 433.354 19.06C433.354 15.4547 433.614 12.456 434.134 10.064C434.689 7.672 435.573 5.76533 436.786 4.344C437.999 2.92267 439.594 1.91733 441.57 1.328C443.546 0.703997 445.955 0.391997 448.798 0.391997ZM448.798 6.632C446.961 6.632 445.522 6.996 444.482 7.724C443.477 8.452 442.749 9.71733 442.298 11.52C441.882 13.3227 441.674 15.836 441.674 19.06C441.674 22.284 441.882 24.7973 442.298 26.6C442.749 28.4027 443.477 29.668 444.482 30.396C445.522 31.0893 446.961 31.436 448.798 31.436C450.601 31.436 452.022 31.0893 453.062 30.396C454.102 29.668 454.83 28.4027 455.246 26.6C455.662 24.7973 455.87 22.284 455.87 19.06C455.87 15.836 455.662 13.3227 455.246 11.52C454.83 9.71733 454.102 8.452 453.062 7.724C452.022 6.996 450.601 6.632 448.798 6.632ZM496.674 1.12V7.36H485.858V37H477.954V7.36H467.138V1.12H496.674ZM508.611 0.963999C511.419 0.963999 514.331 0.998665 517.347 1.068C520.363 1.10266 523.119 1.24133 525.615 1.484L525.251 7.256H511.471C509.738 7.256 508.871 8.14 508.871 9.908V15.524H523.275V21.14H508.871V28.212C508.871 29.98 509.738 30.864 511.471 30.864H525.251L525.615 36.636C523.119 36.8787 520.363 37.0173 517.347 37.052C514.331 37.0867 511.419 37.104 508.611 37.104C506.288 37.104 504.416 36.4627 502.995 35.18C501.608 33.8627 500.915 32.112 500.915 29.928V8.192C500.915 6.008 501.626 4.25733 503.047 2.94C504.468 1.62267 506.323 0.963999 508.611 0.963999ZM548.396 1.12C549.055 1.12 549.627 1.31066 550.112 1.692C550.632 2.07333 550.979 2.576 551.152 3.2L561.552 37H553.44L550.788 27.484H538.412L535.812 37H527.7L538.1 3.2C538.274 2.576 538.603 2.07333 539.088 1.692C539.608 1.31066 540.198 1.12 540.856 1.12H548.396ZM543.144 10.584L540.076 21.556H549.124L546.108 10.584C545.935 10.0293 545.779 9.45733 545.64 8.868C545.536 8.244 545.432 7.65467 545.328 7.1H543.924C543.82 7.65467 543.699 8.244 543.56 8.868C543.422 9.45733 543.283 10.0293 543.144 10.584ZM589.045 1.12V7.36H578.229V37H570.325V7.36H559.509V1.12H589.045ZM607.43 0.599998C610.758 0.599998 613.376 0.946665 615.282 1.64C617.189 2.33333 618.541 3.52933 619.338 5.228C620.17 6.92667 620.586 9.30133 620.586 12.352C620.586 15.4027 620.188 17.7773 619.39 19.476C618.628 21.1747 617.345 22.3533 615.542 23.012C613.774 23.6707 611.4 24.0173 608.418 24.052C607.24 24.0173 606.061 23.9653 604.882 23.896C603.738 23.8267 602.629 23.74 601.554 23.636V37H593.65V1.12C595.072 0.981332 596.424 0.877332 597.706 0.807998C598.989 0.738666 600.376 0.686665 601.866 0.651997C603.392 0.617331 605.246 0.599998 607.43 0.599998ZM607.222 6.58C606.182 6.58 605.177 6.58 604.206 6.58C603.27 6.58 602.386 6.58 601.554 6.58V18.072H607.222C609.302 18.072 610.724 17.6907 611.486 16.928C612.249 16.1653 612.63 14.64 612.63 12.352C612.63 10.064 612.249 8.53867 611.486 7.776C610.724 6.97866 609.302 6.58 607.222 6.58ZM642.9 1.12C643.559 1.12 644.131 1.31066 644.616 1.692C645.136 2.07333 645.483 2.576 645.656 3.2L656.056 37H647.944L645.292 27.484H632.916L630.316 37H622.204L632.604 3.2C632.778 2.576 633.107 2.07333 633.592 1.692C634.112 1.31066 634.702 1.12 635.36 1.12H642.9ZM637.648 10.584L634.58 21.556H643.628L640.612 10.584C640.439 10.0293 640.283 9.45733 640.144 8.868C640.04 8.244 639.936 7.65467 639.832 7.1H638.428C638.324 7.65467 638.203 8.244 638.064 8.868C637.926 9.45733 637.787 10.0293 637.648 10.584ZM665.382 1.12L672.454 16.044H673.234L680.358 1.12H688.366L679.578 18.54L689.094 37H680.982L673.182 20.932H672.506L664.706 37H656.646L666.11 18.54L657.322 1.12H665.382Z" fill="black"/>
<line x1="4" y1="66.5" x2="697" y2="66.5" stroke="#B00A29" stroke-dasharray="32 32"/>
</svg>
